<mxfile host="app.diagrams.net" modified="2021-11-29T14:33:46.420Z" agent="5.0 (Windows)" etag="nT-1zGlobeybTZOpAt_I" version="15.8.6" type="github">
  <diagram id="H2GxSmOHgS52bVZ_iip6" name="Page-1">
    <mxGraphModel dx="2580" dy="848" grid="1" gridSize="10" guides="1" tooltips="1" connect="1" arrows="1" fold="1" page="1" pageScale="1" pageWidth="850" pageHeight="1100" math="0" shadow="0">
      <root>
        <mxCell id="0" />
        <mxCell id="1" parent="0" />
        <mxCell id="0PrOoReBYlSvCFxXVEoK-5" value="" style="ellipse;whiteSpace=wrap;html=1;aspect=fixed;fillColor=#FFFFFF;" vertex="1" parent="1">
          <mxGeometry x="-40" y="690" width="80" height="80" as="geometry" />
        </mxCell>
        <mxCell id="FopAfR4I-L1zOwjvD8pv-1" value="" style="endArrow=none;html=1;rounded=0;" parent="1" edge="1">
          <mxGeometry width="50" height="50" relative="1" as="geometry">
            <mxPoint x="-480" y="50" as="sourcePoint" />
            <mxPoint x="170" y="50" as="targetPoint" />
          </mxGeometry>
        </mxCell>
        <mxCell id="FopAfR4I-L1zOwjvD8pv-3" value="SISTEM" style="text;html=1;align=center;verticalAlign=middle;resizable=0;points=[];autosize=1;strokeColor=none;fillColor=none;fontSize=20;" parent="1" vertex="1">
          <mxGeometry x="-40" y="20" width="90" height="30" as="geometry" />
        </mxCell>
        <mxCell id="FopAfR4I-L1zOwjvD8pv-4" value="&lt;font style=&quot;font-size: 20px&quot;&gt;USER&lt;/font&gt;" style="text;html=1;align=center;verticalAlign=middle;resizable=0;points=[];autosize=1;strokeColor=none;fillColor=none;fontSize=13;" parent="1" vertex="1">
          <mxGeometry x="-370" y="25" width="70" height="20" as="geometry" />
        </mxCell>
        <mxCell id="FopAfR4I-L1zOwjvD8pv-6" value="" style="endArrow=none;html=1;rounded=0;fontSize=20;" parent="1" edge="1">
          <mxGeometry width="50" height="50" relative="1" as="geometry">
            <mxPoint x="-480" y="780" as="sourcePoint" />
            <mxPoint x="-480" y="50" as="targetPoint" />
          </mxGeometry>
        </mxCell>
        <mxCell id="FopAfR4I-L1zOwjvD8pv-7" value="" style="endArrow=none;html=1;rounded=0;fontSize=20;" parent="1" edge="1">
          <mxGeometry width="50" height="50" relative="1" as="geometry">
            <mxPoint x="-160" y="780" as="sourcePoint" />
            <mxPoint x="-160" y="50" as="targetPoint" />
          </mxGeometry>
        </mxCell>
        <mxCell id="FopAfR4I-L1zOwjvD8pv-8" value="" style="endArrow=none;html=1;rounded=0;fontSize=20;" parent="1" edge="1">
          <mxGeometry width="50" height="50" relative="1" as="geometry">
            <mxPoint x="170" y="780" as="sourcePoint" />
            <mxPoint x="170" y="50" as="targetPoint" />
          </mxGeometry>
        </mxCell>
        <mxCell id="FopAfR4I-L1zOwjvD8pv-20" style="edgeStyle=orthogonalEdgeStyle;rounded=0;orthogonalLoop=1;jettySize=auto;html=1;fontSize=20;" parent="1" source="FopAfR4I-L1zOwjvD8pv-11" target="FopAfR4I-L1zOwjvD8pv-13" edge="1">
          <mxGeometry relative="1" as="geometry" />
        </mxCell>
        <mxCell id="FopAfR4I-L1zOwjvD8pv-11" value="user masuk aplikasi" style="rounded=1;whiteSpace=wrap;html=1;fontSize=20;" parent="1" vertex="1">
          <mxGeometry x="-422.5" y="210" width="175" height="80" as="geometry" />
        </mxCell>
        <mxCell id="FopAfR4I-L1zOwjvD8pv-13" value="sistem menampilkan tampilan profil" style="rounded=1;whiteSpace=wrap;html=1;fontSize=20;" parent="1" vertex="1">
          <mxGeometry x="-82.5" y="210" width="175" height="80" as="geometry" />
        </mxCell>
        <mxCell id="FopAfR4I-L1zOwjvD8pv-22" style="edgeStyle=orthogonalEdgeStyle;rounded=0;orthogonalLoop=1;jettySize=auto;html=1;entryX=0;entryY=0.5;entryDx=0;entryDy=0;fontSize=20;" parent="1" source="FopAfR4I-L1zOwjvD8pv-15" target="FopAfR4I-L1zOwjvD8pv-16" edge="1">
          <mxGeometry relative="1" as="geometry" />
        </mxCell>
        <mxCell id="FopAfR4I-L1zOwjvD8pv-15" value="User meng-klik tombol menu" style="rounded=1;whiteSpace=wrap;html=1;fontSize=20;" parent="1" vertex="1">
          <mxGeometry x="-422.5" y="390" width="175" height="80" as="geometry" />
        </mxCell>
        <mxCell id="FopAfR4I-L1zOwjvD8pv-16" value="sistem menampilkan pilihan menu" style="rounded=1;whiteSpace=wrap;html=1;fontSize=20;" parent="1" vertex="1">
          <mxGeometry x="-82.5" y="390" width="175" height="80" as="geometry" />
        </mxCell>
        <mxCell id="FopAfR4I-L1zOwjvD8pv-23" style="edgeStyle=orthogonalEdgeStyle;rounded=0;orthogonalLoop=1;jettySize=auto;html=1;entryX=0;entryY=0.5;entryDx=0;entryDy=0;fontSize=20;" parent="1" source="FopAfR4I-L1zOwjvD8pv-17" target="FopAfR4I-L1zOwjvD8pv-19" edge="1">
          <mxGeometry relative="1" as="geometry" />
        </mxCell>
        <mxCell id="FopAfR4I-L1zOwjvD8pv-17" value="user memilih menu perguruan tinggi" style="rounded=1;whiteSpace=wrap;html=1;fontSize=20;" parent="1" vertex="1">
          <mxGeometry x="-422.5" y="550" width="175" height="80" as="geometry" />
        </mxCell>
        <mxCell id="FopAfR4I-L1zOwjvD8pv-19" value="sistem menampilkan tampilan perguruan tinggi" style="rounded=1;whiteSpace=wrap;html=1;fontSize=20;" parent="1" vertex="1">
          <mxGeometry x="-91.25" y="545" width="192.5" height="90" as="geometry" />
        </mxCell>
        <mxCell id="FopAfR4I-L1zOwjvD8pv-24" value="" style="endArrow=none;html=1;rounded=0;fontSize=20;entryX=0.475;entryY=1.015;entryDx=0;entryDy=0;entryPerimeter=0;" parent="1" target="FopAfR4I-L1zOwjvD8pv-13" edge="1">
          <mxGeometry width="50" height="50" relative="1" as="geometry">
            <mxPoint x="1" y="330" as="sourcePoint" />
            <mxPoint x="20" y="300" as="targetPoint" />
          </mxGeometry>
        </mxCell>
        <mxCell id="FopAfR4I-L1zOwjvD8pv-25" value="" style="endArrow=none;html=1;rounded=0;fontSize=20;" parent="1" edge="1">
          <mxGeometry width="50" height="50" relative="1" as="geometry">
            <mxPoint x="-350" y="330" as="sourcePoint" />
            <mxPoint y="330" as="targetPoint" />
          </mxGeometry>
        </mxCell>
        <mxCell id="FopAfR4I-L1zOwjvD8pv-27" value="" style="endArrow=classic;html=1;rounded=0;fontSize=20;entryX=0.415;entryY=0.01;entryDx=0;entryDy=0;entryPerimeter=0;" parent="1" target="FopAfR4I-L1zOwjvD8pv-15" edge="1">
          <mxGeometry width="50" height="50" relative="1" as="geometry">
            <mxPoint x="-350" y="330" as="sourcePoint" />
            <mxPoint x="-250" y="310" as="targetPoint" />
          </mxGeometry>
        </mxCell>
        <mxCell id="FopAfR4I-L1zOwjvD8pv-28" value="" style="endArrow=none;html=1;rounded=0;fontSize=20;entryX=0.475;entryY=1.015;entryDx=0;entryDy=0;entryPerimeter=0;" parent="1" edge="1">
          <mxGeometry width="50" height="50" relative="1" as="geometry">
            <mxPoint x="21" y="500" as="sourcePoint" />
            <mxPoint x="20.625" y="469.99999999999994" as="targetPoint" />
          </mxGeometry>
        </mxCell>
        <mxCell id="FopAfR4I-L1zOwjvD8pv-29" value="" style="endArrow=none;html=1;rounded=0;fontSize=20;" parent="1" edge="1">
          <mxGeometry width="50" height="50" relative="1" as="geometry">
            <mxPoint x="-350" y="500" as="sourcePoint" />
            <mxPoint x="20" y="500" as="targetPoint" />
          </mxGeometry>
        </mxCell>
        <mxCell id="FopAfR4I-L1zOwjvD8pv-30" value="" style="endArrow=classic;html=1;rounded=0;fontSize=20;entryX=0.415;entryY=-0.041;entryDx=0;entryDy=0;entryPerimeter=0;" parent="1" target="FopAfR4I-L1zOwjvD8pv-17" edge="1">
          <mxGeometry width="50" height="50" relative="1" as="geometry">
            <mxPoint x="-350" y="500" as="sourcePoint" />
            <mxPoint x="-329.8749999999998" y="560.8" as="targetPoint" />
          </mxGeometry>
        </mxCell>
        <mxCell id="0PrOoReBYlSvCFxXVEoK-1" value="" style="ellipse;whiteSpace=wrap;html=1;aspect=fixed;fillColor=#000000;" vertex="1" parent="1">
          <mxGeometry x="-380" y="60" width="80" height="80" as="geometry" />
        </mxCell>
        <mxCell id="0PrOoReBYlSvCFxXVEoK-3" value="" style="endArrow=none;html=1;rounded=0;entryX=0.5;entryY=1;entryDx=0;entryDy=0;startArrow=classic;startFill=1;" edge="1" parent="1" target="0PrOoReBYlSvCFxXVEoK-1">
          <mxGeometry width="50" height="50" relative="1" as="geometry">
            <mxPoint x="-340" y="210" as="sourcePoint" />
            <mxPoint x="-310" y="160" as="targetPoint" />
          </mxGeometry>
        </mxCell>
        <mxCell id="0PrOoReBYlSvCFxXVEoK-4" value="" style="ellipse;whiteSpace=wrap;html=1;aspect=fixed;fillColor=#000000;" vertex="1" parent="1">
          <mxGeometry x="-25" y="705" width="50" height="50" as="geometry" />
        </mxCell>
        <mxCell id="0PrOoReBYlSvCFxXVEoK-10" value="" style="endArrow=none;html=1;rounded=0;entryX=0.473;entryY=1.007;entryDx=0;entryDy=0;entryPerimeter=0;exitX=0.5;exitY=0;exitDx=0;exitDy=0;startArrow=block;startFill=1;" edge="1" parent="1" source="0PrOoReBYlSvCFxXVEoK-5" target="FopAfR4I-L1zOwjvD8pv-19">
          <mxGeometry width="50" height="50" relative="1" as="geometry">
            <mxPoint x="-70" y="720" as="sourcePoint" />
            <mxPoint x="-20" y="670" as="targetPoint" />
          </mxGeometry>
        </mxCell>
        <mxCell id="0PrOoReBYlSvCFxXVEoK-11" value="" style="endArrow=none;html=1;rounded=0;" edge="1" parent="1">
          <mxGeometry width="50" height="50" relative="1" as="geometry">
            <mxPoint x="-480" y="780" as="sourcePoint" />
            <mxPoint x="170" y="780" as="targetPoint" />
          </mxGeometry>
        </mxCell>
      </root>
    </mxGraphModel>
  </diagram>
</mxfile>
